<svg width="20" height="20" viewBox="0 0 20 20" fill="none" xmlns="http://www.w3.org/2000/svg">
     <g clip-path="url(#clip0_69189_283)">
          <path fill-rule="evenodd" clip-rule="evenodd"
               d="M4.34315 15.6568C5.84344 17.1571 7.87827 18 10 18C12.1217 18 14.1566 17.1571 15.6569 15.6568C17.1571 14.1566 18 12.1217 18 9.99999C18 7.87826 17.1571 5.84342 15.6569 4.34313C14.1566 2.84284 12.1217 1.99999 10 1.99999C7.87827 1.99999 5.84344 2.84284 4.34315 4.34313C2.84285 5.84342 2 7.87826 2 9.99999C2 12.1217 2.84285 14.1566 4.34315 15.6568ZM12.8284 8.58577C13.016 8.39824 13.1213 8.14388 13.1213 7.87867C13.1213 7.61345 13.016 7.3591 12.8284 7.17156C12.6409 6.98402 12.3865 6.87867 12.1213 6.87867C11.8561 6.87867 11.6017 6.98402 11.4142 7.17156L10 8.58577L8.58579 7.17156C8.39825 6.98402 8.1439 6.87867 7.87868 6.87867C7.61346 6.87867 7.35911 6.98402 7.17157 7.17156C6.98404 7.3591 6.87868 7.61345 6.87868 7.87867C6.87868 8.14388 6.98404 8.39824 7.17157 8.58577L8.58579 9.99999L7.17157 11.4142C6.98404 11.6017 6.87868 11.8561 6.87868 12.1213C6.87868 12.3865 6.98404 12.6409 7.17157 12.8284C7.35911 13.016 7.61346 13.1213 7.87868 13.1213C8.1439 13.1213 8.39825 13.016 8.58579 12.8284L10 11.4142L11.4142 12.8284C11.6017 13.016 11.8561 13.1213 12.1213 13.1213C12.3865 13.1213 12.6409 13.016 12.8284 12.8284C13.016 12.6409 13.1213 12.3865 13.1213 12.1213C13.1213 11.8561 13.016 11.6017 12.8284 11.4142L11.4142 9.99999L12.8284 8.58577Z"
               fill="black" />
     </g>
     <defs>
          <clipPath id="clip0_69189_283">
               <rect width="20" height="20" fill="white" />
          </clipPath>
     </defs>
</svg>