<svg width="25" height="25" viewBox="0 0 25 25" fill="none" xmlns="http://www.w3.org/2000/svg">
    <path d="M12.2385 10.8164C15.5784 10.8164 18.3331 8.44643 18.3331 5.50634C18.3331 2.59639 15.5784 0.226654 12.2385 0.226654C8.89856 0.226654 6.14386 2.5966 6.14386 5.53668C6.14386 8.44663 8.89856 10.8164 12.2385 10.8164ZM12.2385 1.42649C14.8209 1.42649 16.9558 3.25643 16.9558 5.53658C16.9558 7.78659 14.8555 9.64667 12.2385 9.64667C9.65601 9.64667 7.52109 7.81673 7.52109 5.53658C7.52109 3.25643 9.65601 1.42649 12.2385 1.42649Z" fill="black"/>
    <path d="M17.5409 11.1167C17.3343 11.1167 17.1621 11.1768 17.0244 11.2967C15.7505 12.3767 14.0288 12.9768 12.2383 12.9768C10.4479 12.9768 8.76055 12.3767 7.45226 11.2967C7.31461 11.1768 7.10801 11.1167 6.93577 11.1167C3.18267 11.3568 0.221375 14.1167 0.221375 17.4168V20.3267C0.221375 22.4867 2.2184 24.2267 4.69756 24.2267H19.7449C22.2241 24.2267 24.2211 22.4867 24.2211 20.3267V17.4168C24.2554 14.1167 21.2944 11.3564 17.5409 11.1167V11.1167ZM22.8781 20.3266C22.8781 21.8267 21.5008 23.0266 19.7791 23.0266H4.69756C2.97584 23.0266 1.59861 21.8267 1.59861 20.3266V17.4166C1.59861 14.8366 3.83682 12.6766 6.72917 12.3467C8.2443 13.5466 10.1724 14.1766 12.2383 14.1766C14.3043 14.1766 16.2326 13.5167 17.7475 12.3467C20.6399 12.6466 22.8781 14.8368 22.8781 17.4166V20.3266Z" fill="black"/>
    <path d="M16.0605 16.5466C15.785 16.3065 15.3718 16.3065 15.0965 16.5466C14.8209 16.7866 14.8209 17.1466 15.0965 17.3865L16.3704 18.5266L15.0965 19.6365C14.8209 19.8766 14.8209 20.2366 15.0965 20.4765C15.2341 20.5964 15.4064 20.6565 15.5786 20.6565C15.7509 20.6565 15.9229 20.5964 16.0608 20.4765L17.8168 18.9465C18.0924 18.7064 18.0924 18.3464 17.8168 18.1065L16.0605 16.5466Z" fill="black"/>
    <path d="M13.5471 14.9564C13.1683 14.8664 12.7897 15.0464 12.6864 15.3765L10.7581 21.3463C10.6548 21.6764 10.8614 22.0063 11.2402 22.0963C11.3091 22.1262 11.3779 22.1262 11.4124 22.1262C11.7223 22.1262 11.9979 21.9462 12.0666 21.6762L13.9949 15.7063C14.098 15.3765 13.8914 15.0464 13.5471 14.9564L13.5471 14.9564Z" fill="black"/>
    <path d="M9.38032 16.5466C9.10478 16.3065 8.69159 16.3065 8.41628 16.5466L6.66021 18.0766C6.38467 18.3167 6.38467 18.6767 6.66021 18.9165L8.41628 20.4465C8.55393 20.5665 8.72618 20.6265 8.89842 20.6265C9.07066 20.6265 9.24267 20.5665 9.38056 20.4465C9.6561 20.2065 9.6561 19.8465 9.38056 19.6066L8.10638 18.5266L9.38032 17.4166C9.65586 17.1766 9.65586 16.7866 9.38032 16.5466Z" fill="black"/>
    </svg>
    