<svg width="45" height="45" viewBox="0 0 45 45" fill="none" xmlns="http://www.w3.org/2000/svg">
     <path
          d="M28.125 42.6562H16.875C6.69375 42.6562 2.34375 38.3063 2.34375 28.125V16.875C2.34375 6.69375 6.69375 2.34375 16.875 2.34375H28.125C38.3063 2.34375 42.6562 6.69375 42.6562 16.875V28.125C42.6562 38.3063 38.3063 42.6562 28.125 42.6562ZM16.875 5.15625C8.23125 5.15625 5.15625 8.23125 5.15625 16.875V28.125C5.15625 36.7687 8.23125 39.8438 16.875 39.8438H28.125C36.7687 39.8438 39.8438 36.7687 39.8438 28.125V16.875C39.8438 8.23125 36.7687 5.15625 28.125 5.15625H16.875Z"
          fill="#2570F0" />
     <path
          d="M16.875 20.1563C14.025 20.1563 11.7188 17.85 11.7188 15C11.7188 12.15 14.025 9.84375 16.875 9.84375C19.725 9.84375 22.0313 12.15 22.0313 15C22.0313 17.85 19.725 20.1563 16.875 20.1563ZM16.875 12.6563C15.5813 12.6563 14.5313 13.7063 14.5313 15C14.5313 16.2938 15.5813 17.3438 16.875 17.3438C18.1688 17.3438 19.2188 16.2938 19.2188 15C19.2188 13.7063 18.1688 12.6563 16.875 12.6563Z"
          fill="#2570F0" />
     <path
          d="M5.0057 36.9377C4.5557 36.9377 4.1057 36.7127 3.8432 36.3189C3.41195 35.6814 3.5807 34.8002 4.23695 34.3689L13.4807 28.1627C15.5057 26.7939 18.2995 26.9627 20.137 28.5189L20.7558 29.0627C21.6933 29.8689 23.287 29.8689 24.2058 29.0627L32.0058 22.3689C33.9933 20.6627 37.1245 20.6627 39.1308 22.3689L42.187 24.9939C42.7683 25.5002 42.8433 26.3814 42.337 26.9814C41.8308 27.5627 40.9495 27.6377 40.3495 27.1314L37.2933 24.5064C36.3558 23.7002 34.762 23.7002 33.8245 24.5064L26.0245 31.2002C24.037 32.9064 20.9058 32.9064 18.8995 31.2002L18.2807 30.6564C17.4182 29.9252 15.9932 29.8502 15.0369 30.5064L5.7932 36.7127C5.54945 36.8627 5.2682 36.9377 5.0057 36.9377Z"
          fill="#2570F0" />
</svg>