<svg width="24" height="24" viewBox="0 0 24 24" fill="none" xmlns="http://www.w3.org/2000/svg">
<path d="M10.2777 11.8475C10.173 11.7459 10.1149 11.6082 10.1163 11.4653C10.1175 11.3223 10.1785 11.1856 10.2852 11.086C10.3921 10.9864 10.5359 10.9317 10.6847 10.9346C10.8337 10.9373 10.9752 10.9971 11.0778 11.1008C11.4878 11.4528 12.0276 11.6319 12.5762 11.5979C13.2981 11.5979 13.685 11.3358 13.685 10.8547C13.6984 10.6669 13.628 10.4823 13.4916 10.3471C13.3359 10.2204 13.141 10.1464 12.9373 10.1366L12.1811 10.0354C11.7314 9.99715 11.3063 9.82215 10.9673 9.53582C10.6544 9.21785 10.492 8.78992 10.5182 8.35322C10.5097 7.92705 10.664 7.51262 10.9518 7.18837C11.2397 6.86395 11.6414 6.65202 12.0807 6.59287L12.0784 5.96982C12.103 5.70439 12.3342 5.50088 12.6116 5.5001C12.8908 5.50674 13.1199 5.71474 13.1424 5.98232V6.55537C13.7263 6.59385 14.2779 6.82627 14.703 7.21277C14.8166 7.31023 14.8819 7.4493 14.8825 7.59578C14.8829 7.80809 14.7494 7.99949 14.5446 8.07996C14.3401 8.16023 14.1051 8.11355 13.9504 7.9618L13.949 7.96316L13.9492 7.96297C13.5965 7.66433 13.1332 7.51551 12.6644 7.55027C12.0135 7.55027 11.6976 7.89715 11.6976 8.30982C11.6942 8.47213 11.7611 8.62838 11.8824 8.74127C12.0465 8.87467 12.2487 8.95728 12.4624 8.97857L13.2015 9.07974C13.6417 9.10904 14.0606 9.27173 14.3983 9.5442C14.738 9.8858 14.9132 10.3485 14.8817 10.82C14.8764 11.2714 14.6945 11.7044 14.3723 12.0331C14.0501 12.3616 13.6109 12.5618 13.1424 12.594V13.1716H13.1393L13.1391 13.1714C13.1324 13.4468 12.8982 13.6667 12.6114 13.6667C12.3247 13.6667 12.0905 13.4468 12.0836 13.1714H12.0806V12.6183C11.3996 12.589 10.7547 12.3156 10.2732 11.8521L10.2777 11.8475ZM20.9997 5.5V19.5C20.9997 20.4283 20.6159 21.3186 19.9328 21.9748C19.2496 22.6313 18.323 23 17.3568 23H7.64286C6.67667 23 5.75008 22.6313 5.06684 21.9748C4.3838 21.3186 4 20.4283 4 19.5V5.5C4 4.5717 4.3838 3.68145 5.06684 3.0252C5.75008 2.36875 6.67667 2 7.64286 2H17.3573H17.3571C18.3233 2 19.2499 2.36875 19.9332 3.0252C20.6162 3.68145 21 4.5717 21 5.5H20.9997ZM19.7855 5.5C19.7846 4.88145 19.5287 4.2883 19.0733 3.8508C18.618 3.41349 18.0008 3.1674 17.3568 3.1666H7.64286C6.99886 3.16738 6.3817 3.41347 5.92635 3.8508C5.47099 4.2883 5.21505 4.88145 5.21422 5.5V19.5C5.21503 20.1186 5.47097 20.7117 5.92635 21.1492C6.3817 21.5865 6.99886 21.8326 7.64286 21.8334H17.3573H17.3571C18.0011 21.8326 18.6183 21.5865 19.0737 21.1492C19.529 20.7117 19.7849 20.1186 19.7858 19.5L19.7855 5.5ZM16.7498 16H8.24945C7.91424 16 7.64245 16.2611 7.64245 16.5834C7.64245 16.9055 7.91424 17.1666 8.24945 17.1666H16.7498C17.085 17.1666 17.3568 16.9055 17.3568 16.5834C17.3568 16.2611 17.085 16 16.7498 16ZM16.7498 18.3334H8.24945C7.91424 18.3334 7.64245 18.5945 7.64245 18.9166C7.64245 19.2389 7.91424 19.5 8.24945 19.5H16.7498C17.085 19.5 17.3568 19.2389 17.3568 18.9166C17.3568 18.5945 17.085 18.3334 16.7498 18.3334Z" fill="black"/>
</svg>
